<svg width="128" height="59" viewBox="0 0 128 59" fill="none" xmlns="http://www.w3.org/2000/svg">
<g clip-path="url(#clip0_96_5)">
<path d="M126.631 42.3376C117.688 41.9864 64.4806 39.7618 16.6133 46.8446C16.0093 46.9338 15.4555 47.1939 15.0298 47.5823C12.3481 50.0289 8.22777 55.1177 6.43855 58.2427C6.19986 58.6593 6.65346 59.1208 7.1546 58.9714C49.0493 46.4861 103.676 42.8246 126.796 44.1093C126.914 44.1157 127.017 44.0422 127.036 43.9393C127.096 43.6147 127.126 43.1367 127.123 42.7858C127.12 42.5448 126.904 42.3481 126.631 42.3376H126.631Z" fill="white"/>
<path d="M127.709 33.3662L127.37 28.4022L126.35 13.4311C126.337 13.2514 126.169 13.1113 125.965 13.1113H118.832C118.675 13.1113 118.534 13.1949 118.475 13.3225L111.478 28.4022L109.174 33.3662L107.249 37.5143C107.145 37.738 107.332 37.9834 107.606 37.9834H112.945C113.103 37.9834 113.245 37.8978 113.304 37.7674L115.161 33.5822C115.219 33.4518 115.362 33.3662 115.52 33.3662H121.257C121.463 33.3662 121.633 33.51 121.642 33.6921L121.833 37.6576C121.841 37.8397 122.011 37.9834 122.218 37.9834H127.615C127.837 37.9834 128.013 37.8183 128 37.6229L127.71 33.3662H127.709ZM117.668 27.9379L120.337 21.925C120.489 21.5826 121.063 21.667 121.08 22.0348L121.369 28.0478C121.379 28.2411 121.204 28.4022 120.984 28.4022H118.026C117.754 28.4022 117.568 28.1612 117.667 27.9379H117.668Z" fill="white"/>
<path d="M105.202 13.1117H95.5189C95.3387 13.1117 95.1823 13.2224 95.143 13.3778L91.2427 28.7587L89.009 37.5692C88.955 37.782 89.1384 37.9838 89.3848 37.9838H95.2555C95.4356 37.9838 95.592 37.8732 95.6313 37.7178L97.8353 29.0244C97.8746 28.869 98.031 28.7583 98.2112 28.7583H98.7269C98.9149 28.7583 99.0758 28.8783 99.1069 29.0422L100.755 37.6996C100.786 37.8635 100.947 37.9834 101.135 37.9834H106.559C106.797 37.9834 106.978 37.7945 106.939 37.587L105.178 28.336C105.15 28.187 105.236 28.0405 105.39 27.9739C107.688 26.9762 109.438 25.1 110.027 22.7773L110.889 19.3851C111.706 16.1681 108.936 13.1113 105.201 13.1113L105.202 13.1117ZM100.918 24.7007H99.4133C99.1663 24.7007 98.9834 24.4989 99.0374 24.2861L100.662 17.8775C100.702 17.7221 100.858 17.6114 101.038 17.6114H103.579C104.529 17.6114 105.233 18.3886 105.025 19.2066L104.223 22.3643C104.192 22.4842 104.154 22.6009 104.109 22.7139C103.634 23.8924 102.364 24.7003 100.918 24.7003V24.7007Z" fill="white"/>
<path d="M82.771 13.1113C77.6799 13.1113 73.2839 16.2593 72.2327 20.6581L70.1261 29.4713C69.0777 33.8576 72.8674 37.9834 77.9442 37.9834C80.4897 37.9834 82.8619 37.1965 84.7284 35.8598C86.5954 34.5226 87.9575 32.6363 88.4829 30.4367L88.8839 28.7583L90.5895 21.6234C90.6828 21.2322 90.7381 20.8434 90.7568 20.4594C90.9516 16.5343 87.3951 13.1113 82.771 13.1113ZM84.7367 19.509L81.8775 30.7165C81.6868 31.463 81.2163 32.1017 80.5766 32.5539C79.9365 33.0057 79.1276 33.271 78.2606 33.271C76.9355 33.271 75.9524 32.1857 76.2437 31.0439L79.1029 19.8365C79.4838 18.343 80.9859 17.2824 82.7193 17.2824C84.0449 17.2824 85.0275 18.3676 84.7367 19.509Z" fill="white"/>
<path d="M65.2955 25.3435L68.899 37.5575C68.9626 37.7731 68.7783 37.9834 68.5264 37.9834H62.6745C62.4934 37.9834 62.3366 37.872 62.2982 37.7158L60.7623 31.4864L60.4619 30.2671C60.3855 29.9566 59.9118 29.9001 59.7444 30.1811L59.2689 30.9793L55.2062 37.8018C55.1395 37.9136 55.0082 37.9834 54.8651 37.9834H49.1312C48.8289 37.9834 48.6442 37.6903 48.8038 37.4634L57.5734 25.0153C57.6274 24.9385 57.6447 24.8461 57.6214 24.7581L54.6479 13.5288C54.5912 13.3152 54.775 13.1113 55.0233 13.1113H60.8706C61.0558 13.1113 61.2145 13.2272 61.2492 13.3879L62.3082 18.2946L62.4916 19.144C62.5584 19.4529 63.0234 19.5236 63.2031 19.2518L63.407 18.9438L67.1533 13.2801C67.2223 13.1755 67.349 13.1113 67.4861 13.1113H73.1926C73.4958 13.1113 73.6805 13.4065 73.5186 13.633L65.3426 25.0762C65.2859 25.1558 65.2689 25.2527 65.2955 25.3435Z" fill="white"/>
<path d="M44.866 18.7829L44.1504 21.6047C44.0452 22.0193 44.4023 22.413 44.8833 22.413L50.1083 22.4142C50.3406 22.4142 50.5144 22.6031 50.4664 22.8038L49.3283 27.5692C49.2926 27.7185 49.1431 27.8255 48.9702 27.8255L42.8669 27.8239C42.6954 27.8239 42.5472 27.9289 42.5097 28.0763L41.4704 32.1734C41.4192 32.3753 41.593 32.5671 41.8275 32.5671L48.1714 32.5683C48.4037 32.5683 48.5775 32.7572 48.5294 32.9579L47.3909 37.7261C47.3552 37.8755 47.2057 37.9825 47.0329 37.9825H33.7941C33.5595 37.9825 33.3858 37.7907 33.437 37.5888L34.7109 32.5651L35.9139 27.8215L37.2861 22.4097L38.2706 18.5274L39.5801 13.3627C39.6176 13.2149 39.7658 13.1104 39.9373 13.1104H52.6831C52.9154 13.1104 53.0892 13.2993 53.0411 13.5L51.9012 18.2738C51.8655 18.4232 51.716 18.5302 51.5432 18.5302L45.2235 18.5286C45.0521 18.5286 44.9039 18.6335 44.8664 18.7809L44.866 18.7829Z" fill="white"/>
<path d="M32.8078 32.5693L31.5796 37.7133C31.5421 37.8708 31.3848 37.9834 31.2024 37.9834H17.4835C17.2366 37.9834 17.0537 37.7816 17.1076 37.5688L18.376 32.566L18.377 32.5624L19.5795 27.8188L20.9517 22.4071L21.9362 18.5247L23.2417 13.3774C23.281 13.222 23.4374 13.1113 23.6175 13.1113H29.4882C29.7351 13.1113 29.918 13.3132 29.864 13.526L28.5961 18.5263L27.6116 22.4087L26.2394 27.8204L25.0368 32.564L25.0359 32.5676L32.8078 32.5693Z" fill="white"/>
<path d="M20.2225 13C20.4671 13 20.65 13.199 20.5997 13.4102L19.4054 18.4126L19.4036 18.4202L11.8063 18.4182C11.6257 18.4182 11.4698 18.5288 11.43 18.6843L10.4227 22.6575C10.3687 22.8699 10.5521 23.0721 10.7986 23.0721L13.6824 23.073L17.2586 23.0738L16.1521 27.7071L16.0309 28.2154C15.9934 28.3729 15.8361 28.4855 15.6537 28.4855L9.25397 28.4839C9.07336 28.4839 8.91743 28.5945 8.87765 28.75L7.93846 32.4527L6.63118 37.6064C6.59186 37.7619 6.43548 37.8725 6.25532 37.8725H0.385595C0.13868 37.8725 -0.0442204 37.6706 0.0097352 37.4579L1.27952 32.4511L2.28593 28.4823L3.65814 23.0705L4.83784 18.4174L6.14421 13.2665C6.18353 13.111 6.33991 13.0004 6.52007 13.0004H20.2225V13Z" fill="white"/>
<path d="M93.0474 19.3646C92.5206 19.3646 92.03 19.1087 91.7675 18.6965C91.5078 18.2887 91.5193 17.803 91.7982 17.398L95.4228 12.1284L91.2691 11.9003C90.6317 11.8655 90.1128 11.4913 89.9468 10.9462C89.7877 10.4234 89.9989 9.89165 90.4868 9.57351L101.224 1.01822L101.277 0.986725C101.523 0.842993 101.803 0.76709 102.088 0.76709C102.614 0.76709 103.105 1.02306 103.368 1.43528C103.627 1.84306 103.616 2.32836 103.337 2.73372L103.326 2.74946L99.3917 8.1705L102.598 8.33886C103.238 8.37439 103.758 8.74947 103.923 9.29452C104.079 9.80889 103.876 10.3309 103.405 10.6499L93.9317 19.101L93.8576 19.1446C93.6125 19.2883 93.3323 19.3642 93.0469 19.3642L93.0474 19.3646Z" fill="white"/>
<path d="M102.088 1.53422C102.508 1.53422 102.858 1.95411 102.596 2.33524L97.907 8.79471C97.8864 8.82297 97.9079 8.86052 97.9463 8.86254L102.547 9.10438C103.116 9.13587 103.314 9.78751 102.839 10.0657L93.3774 18.5059C93.2691 18.5697 93.1561 18.5976 93.0478 18.5976C92.6276 18.5976 92.2782 18.1777 92.5407 17.7965L96.869 11.5042C96.8887 11.476 96.8667 11.4392 96.8292 11.4372L91.323 11.1348C90.7542 11.1037 90.5562 10.4521 91.0308 10.1735L101.758 1.62587C101.867 1.56208 101.98 1.53422 102.088 1.53422ZM102.088 0C101.631 0 101.185 0.120315 100.797 0.347622L100.69 0.410605L100.594 0.486913L89.9312 8.98325C89.1918 9.48874 88.8621 10.3386 89.1076 11.1457C89.3678 12.0008 90.2151 12.6117 91.216 12.6662L93.9339 12.8156L91.0555 17.0004C90.6115 17.6447 90.5946 18.4199 91.0103 19.0728C91.4264 19.7264 92.2069 20.1322 93.0473 20.1322C93.5046 20.1322 93.9508 20.0119 94.339 19.7842L94.4872 19.6973L94.612 19.5859L103.988 11.2216C104.692 10.7133 105.001 9.88481 104.763 9.09711C104.503 8.24158 103.656 7.62951 102.655 7.5742H102.652H102.649L100.923 7.48335L104.058 3.16412L104.069 3.14878L104.08 3.13304C104.524 2.48786 104.541 1.71308 104.125 1.06023C103.709 0.406972 102.928 0.000807484 102.088 0.000807484V0Z" fill="white"/>
<path d="M102.839 10.0659L93.3771 18.5061C92.8481 18.8166 92.2102 18.276 92.5403 17.7963L96.8687 11.504C96.8883 11.4758 96.8664 11.439 96.8289 11.437L91.3227 11.1346C90.7538 11.1035 90.5559 10.4519 91.0305 10.1733L101.758 1.62568C102.288 1.3152 102.925 1.85581 102.595 2.33546L97.9066 8.79492C97.886 8.82319 97.9075 8.86073 97.9459 8.86275L102.546 9.10459C103.116 9.13609 103.314 9.78772 102.839 10.0659Z" fill="black"/>
<path d="M102.699 53H101.188L103.151 47.1818H105.023L106.986 53H105.474L104.108 48.6477H104.062L102.699 53ZM102.497 50.7102H105.656V51.7784H102.497V50.7102ZM108.933 53.0625C108.611 53.0625 108.318 52.9792 108.055 52.8125C107.791 52.6458 107.581 52.3958 107.424 52.0625C107.267 51.7292 107.188 51.3153 107.188 50.821C107.188 50.3078 107.27 49.8854 107.433 49.554C107.595 49.2225 107.808 48.9773 108.072 48.8182C108.337 48.6591 108.622 48.5795 108.927 48.5795C109.156 48.5795 109.352 48.6193 109.515 48.6989C109.678 48.7765 109.812 48.8769 109.918 49C110.024 49.1231 110.105 49.2509 110.16 49.3835H110.188V47.1818H111.577V53H110.202V52.2926H110.16C110.101 52.4271 110.018 52.553 109.91 52.6705C109.802 52.7879 109.666 52.8826 109.504 52.9545C109.343 53.0265 109.152 53.0625 108.933 53.0625ZM109.415 51.9801C109.584 51.9801 109.728 51.9328 109.847 51.8381C109.967 51.7415 110.058 51.6061 110.123 51.4318C110.187 51.2576 110.219 51.053 110.219 50.8182C110.219 50.5795 110.187 50.3741 110.123 50.2017C110.06 50.0294 109.969 49.8968 109.847 49.804C109.728 49.7112 109.584 49.6648 109.415 49.6648C109.243 49.6648 109.097 49.7121 108.978 49.8068C108.859 49.9015 108.768 50.035 108.705 50.2074C108.645 50.3797 108.614 50.5833 108.614 50.8182C108.614 51.053 108.646 51.2576 108.708 51.4318C108.771 51.6061 108.861 51.7415 108.978 51.8381C109.097 51.9328 109.243 51.9801 109.415 51.9801ZM112.456 53V48.6364H113.777V49.4375H113.825C113.916 49.1723 114.07 48.9631 114.286 48.8097C114.501 48.6562 114.759 48.5795 115.058 48.5795C115.361 48.5795 115.621 48.6572 115.837 48.8125C116.053 48.9678 116.19 49.1761 116.249 49.4375H116.294C116.375 49.178 116.535 48.9706 116.771 48.8153C117.008 48.6581 117.287 48.5795 117.609 48.5795C118.022 48.5795 118.357 48.7121 118.615 48.9773C118.873 49.2405 119.001 49.6023 119.001 50.0625V53H117.612V50.3807C117.612 50.1629 117.556 49.9972 117.445 49.8835C117.333 49.768 117.188 49.7102 117.01 49.7102C116.819 49.7102 116.668 49.7727 116.558 49.8977C116.45 50.0208 116.396 50.1866 116.396 50.3949V53H115.061V50.3665C115.061 50.1638 115.006 50.0038 114.896 49.8864C114.786 49.7689 114.642 49.7102 114.462 49.7102C114.34 49.7102 114.233 49.7396 114.141 49.7983C114.048 49.8551 113.975 49.9366 113.922 50.0426C113.871 50.1487 113.845 50.2737 113.845 50.4176V53H112.456ZM119.862 53V48.6364H121.251V53H119.862ZM120.558 48.1278C120.363 48.1278 120.196 48.0634 120.055 47.9347C119.915 47.804 119.845 47.6468 119.845 47.4631C119.845 47.2812 119.915 47.1259 120.055 46.9972C120.196 46.8665 120.363 46.8011 120.558 46.8011C120.755 46.8011 120.923 46.8665 121.061 46.9972C121.201 47.1259 121.271 47.2812 121.271 47.4631C121.271 47.6468 121.201 47.804 121.061 47.9347C120.923 48.0634 120.755 48.1278 120.558 48.1278ZM123.525 50.5114V53H122.136V48.6364H123.457V49.4375H123.505C123.602 49.1705 123.766 48.9612 123.999 48.8097C124.232 48.6562 124.51 48.5795 124.832 48.5795C125.138 48.5795 125.405 48.6487 125.63 48.7869C125.857 48.9233 126.033 49.1146 126.158 49.3608C126.285 49.6051 126.348 49.8911 126.346 50.2188V53H124.957V50.4915C124.959 50.2491 124.897 50.0597 124.772 49.9233C124.649 49.7869 124.478 49.7188 124.258 49.7188C124.112 49.7188 123.983 49.7509 123.871 49.8153C123.762 49.8778 123.676 49.9678 123.616 50.0852C123.557 50.2027 123.527 50.3447 123.525 50.5114Z" fill="white"/>
</g>
<defs>
<clipPath id="clip0_96_5">
<rect width="128" height="59" fill="white"/>
</clipPath>
</defs>
</svg>
